<svg xmlns="http://www.w3.org/2000/svg" width="25.03" height="24.969" viewBox="0 0 25.03 24.969">
  <defs>
    <style>
      .cls-1 {
        fill: #fff;
        fill-rule: evenodd;
      }
    </style>
  </defs>
  <path id="icon1" class="cls-1" d="M4195.25,44.393a1.458,1.458,0,0,0,2.1,0l3.9-4.049a1.557,1.557,0,0,0,0-2.159,1.444,1.444,0,0,0-2.09,0l-1.38,1.435V29.988a1.481,1.481,0,1,0-2.96,0v9.637l-1.38-1.428a1.444,1.444,0,0,0-2.09,0,1.558,1.558,0,0,0,0,2.16Zm12.08-.447a1.509,1.509,0,0,0-1.48,1.527V48.1a2.232,2.232,0,0,1-2.2,2.27h-14.7a2.232,2.232,0,0,1-2.2-2.27V45.472a1.481,1.481,0,1,0-2.96,0V48.1a5.244,5.244,0,0,0,5.16,5.324h14.71a5.242,5.242,0,0,0,5.15-5.324V45.472A1.5,1.5,0,0,0,4207.33,43.945Z" transform="translate(-4183.78 -28.469)"/>
</svg>
